<?xml version="1.0" encoding="UTF-8"?>
<svg id="_레이어_2" data-name="레이어 2" xmlns="http://www.w3.org/2000/svg" viewBox="0 0 2069.22 592">
  <defs>
    <style>
      .cls-1 {
        stroke-width: 60.76px;
      }

      .cls-1, .cls-2, .cls-3, .cls-4, .cls-5, .cls-6, .cls-7 {
        stroke-miterlimit: 10;
      }

      .cls-1, .cls-2, .cls-4, .cls-5, .cls-6, .cls-7 {
        stroke: #fff;
      }

      .cls-8, .cls-4 {
        fill: #e60012;
      }

      .cls-9, .cls-5 {
        fill: #fff;
      }

      .cls-2 {
        fill: #4caf50;
      }

      .cls-2, .cls-4, .cls-5, .cls-6 {
        stroke-width: 80px;
      }

      .cls-3 {
        stroke: #848784;
        stroke-width: 5px;
      }

      .cls-3, .cls-6 {
        fill: none;
        stroke-linecap: round;
      }

      .cls-10 {
        fill: #06c;
      }

      .cls-7 {
        stroke-width: 63.71px;
      }
    </style>
  </defs>
  <g id="_레이어_1-2" data-name="레이어 1">
    <g>
      <path class="cls-2" d="M552,296c0,141.38-114.62,256-256,256S40,437.39,40,296,154.62,40,296,40c4.35,0,10.16-.03,17.39.58,99.56,8.41,238.61,103.01,238.61,255.42Z"/>
      <path class="cls-6" d="M79.41,164.86c13.72,30.63,51.98,103.5,133.2,151.9,147.33,87.8,311.61,31.32,329.85,24.73"/>
      <path class="cls-6" d="M185.06,66.63c11.3,29.94,42.77,101.57,104.94,146.03,112.78,80.65,233.03,16.39,246.37,8.93"/>
      <path class="cls-6" d="M42.34,303.26c14.08,32.28,54.56,107.45,132,155.39,140.48,86.97,290.26,17.67,306.88,9.63"/>
      <path class="cls-6" d="M315.78,46.18c-25.84,7.53-124.32,39.4-188.09,137.33-74.42,114.28-42.68,240.27-37.16,260.62"/>
      <path class="cls-6" d="M326.51,46.18c19.74,30.94,83.41,139.01,68.93,286.01-10.59,107.52-59.64,183.77-83.11,216.35"/>
      <path class="cls-6" d="M326.51,46.18c8.08,3.68,171.68,81.42,182.2,243.65,9.21,141.94-106.42,230.63-119.63,240.42"/>
      <path class="cls-6" d="M320.37,44.39c-29.21,23.55-82.37,78.97-117.94,145.79-46.36,87.08-50.27,166.67-50.55,196.08-.47,49.03,13.92,104.23,21.45,131.39"/>
      <path class="cls-6" d="M321.91,44.64c-6.02,81.19-18.06,193.03-35.23,287.99-13.31,73.56-30.58,148.23-47.49,211.4"/>
      <path class="cls-5" d="M308.53,323.48c-23.14,0-43.71-1.11-61.7-3.37-18-2.24-33.11-5.62-45.31-10.12,0,15.42,2.24,29.4,6.75,41.94,4.49,12.53,11.57,22.99,21.21,31.33,9.64,9.64,20.56,16.39,32.78,20.24,12.2,3.86,26.03,5.78,41.45,5.78,10.92,0,23.29-.8,37.12-2.41,13.81-1.6,28.76-4.97,44.83-10.12,8.99-2.56,16.22-2.56,21.69,0,5.45,2.58,9.47,7.4,12.05,14.46,1.93,9.01.63,16.39-3.86,22.17-4.5,5.78-11.57,10.29-21.21,13.5-13.5,5.15-27.81,8.68-42.9,10.6-15.11,1.93-31.01,2.89-47.72,2.89-25.06,0-47.24-3.37-66.52-10.12s-35.35-17.5-48.2-32.29c-14.14-13.5-24.58-29.72-31.33-48.68-6.75-18.95-10.12-40.01-10.12-63.14,0-25.06,3.69-48.04,11.09-68.93,7.38-20.88,18.8-39.68,34.22-56.4,14.13-15.42,32.29-27.48,54.47-36.15,22.17-8.68,48.04-13.01,77.6-13.01,17.35,0,33.09,2.74,47.24,8.19,14.13,5.47,26.99,12.38,38.56,20.73,10.27,9.64,18.47,20.09,24.58,31.33,6.1,11.25,9.16,22.99,9.16,35.19,0,16.07-3.06,30.05-9.16,41.94-6.12,11.9-14.94,21.69-26.51,29.4-11.57,8.36-25.71,14.63-42.42,18.8-16.72,4.19-36,6.27-57.84,6.27ZM208.27,258.89c12.85,5.15,28.44,8.84,46.76,11.09,18.32,2.26,38.71,3.37,61.22,3.37,11.57,0,21.84-.63,30.85-1.93,8.99-1.28,17.02-3.86,24.1-7.71,6.42-2.56,11.24-6.9,14.46-13.01,3.21-6.1,4.82-13.98,4.82-23.62,0-4.49-1.3-9.31-3.86-14.46-2.58-5.14-6.12-10.27-10.6-15.42-5.78-4.49-12.86-8.03-21.21-10.6-8.36-2.56-18.32-3.86-29.89-3.86-20.58,0-38.41,2.89-53.5,8.68-15.11,5.78-27.81,14.14-38.08,25.06-5.78,6.43-10.94,13.18-15.42,20.24-4.5,7.08-7.71,14.46-9.64,22.17Z"/>
      <g>
        <path class="cls-4" d="M552,115c0-41.42-33.58-75-75-75-.03,0-.05,0-.08,0-.03,0-.05,0-.08,0-41.42,0-75,33.58-75,75s60.29,171.46,75,201.08c.02.04.04.08.06.12v.06s.01-.02.02-.03c0,.01.01.02.02.03v-.06s.04-.08.06-.12c14.71-29.62,75-159.65,75-201.08Z"/>
        <circle class="cls-5" cx="476.92" cy="114.42" r="44.5"/>
      </g>
      <path class="cls-10" d="M552,296c0,141.38-114.62,256-256,256S40,437.39,40,296,154.62,40,296,40c4.35,0,10.16-.03,17.39.58,99.56,8.41,238.61,103.01,238.61,255.42Z"/>
      <path class="cls-3" d="M79.41,164.86c13.72,30.63,51.98,103.5,133.2,151.9,147.33,87.8,311.61,31.32,329.85,24.73"/>
      <path class="cls-3" d="M185.06,66.63c11.3,29.94,42.77,101.57,104.94,146.03,112.78,80.65,233.03,16.39,246.37,8.93"/>
      <path class="cls-3" d="M42.34,303.26c14.08,32.28,54.56,107.45,132,155.39,140.48,86.97,290.26,17.67,306.88,9.63"/>
      <path class="cls-3" d="M315.78,46.18c-25.84,7.53-124.32,39.4-188.09,137.33-74.42,114.28-42.68,240.27-37.16,260.62"/>
      <path class="cls-3" d="M326.51,46.18c19.74,30.94,83.41,139.01,68.93,286.01-10.59,107.52-59.64,183.77-83.11,216.35"/>
      <path class="cls-3" d="M326.51,46.18c8.08,3.68,171.68,81.42,182.2,243.65,9.21,141.94-106.42,230.63-119.63,240.42"/>
      <path class="cls-3" d="M320.37,44.39c-29.21,23.55-82.37,78.97-117.94,145.79-46.36,87.08-50.27,166.67-50.55,196.08-.47,49.03,13.92,104.23,21.45,131.39"/>
      <path class="cls-3" d="M321.91,44.64c-6.02,81.19-18.06,193.03-35.23,287.99-13.31,73.56-30.58,148.23-47.49,211.4"/>
      <path class="cls-9" d="M308.53,323.48c-23.14,0-43.71-1.11-61.7-3.37-18-2.24-33.11-5.62-45.31-10.12,0,15.42,2.24,29.4,6.75,41.94,4.49,12.53,11.57,22.99,21.21,31.33,9.64,9.64,20.56,16.39,32.78,20.24,12.2,3.86,26.03,5.78,41.45,5.78,10.92,0,23.29-.8,37.12-2.41,13.81-1.6,28.76-4.97,44.83-10.12,8.99-2.56,16.22-2.56,21.69,0,5.45,2.58,9.47,7.4,12.05,14.46,1.93,9.01.63,16.39-3.86,22.17-4.5,5.78-11.57,10.29-21.21,13.5-13.5,5.15-27.81,8.68-42.9,10.6-15.11,1.93-31.01,2.89-47.72,2.89-25.06,0-47.24-3.37-66.52-10.12s-35.35-17.5-48.2-32.29c-14.14-13.5-24.58-29.72-31.33-48.68-6.75-18.95-10.12-40.01-10.12-63.14,0-25.06,3.69-48.04,11.09-68.93,7.38-20.88,18.8-39.68,34.22-56.4,14.13-15.42,32.29-27.48,54.47-36.15,22.17-8.68,48.04-13.01,77.6-13.01,17.35,0,33.09,2.74,47.24,8.19,14.13,5.47,26.99,12.38,38.56,20.73,10.27,9.64,18.47,20.09,24.58,31.33,6.1,11.25,9.16,22.99,9.16,35.19,0,16.07-3.06,30.05-9.16,41.94-6.12,11.9-14.94,21.69-26.51,29.4-11.57,8.36-25.71,14.63-42.42,18.8-16.72,4.19-36,6.27-57.84,6.27ZM208.27,258.89c12.85,5.15,28.44,8.84,46.76,11.09,18.32,2.26,38.71,3.37,61.22,3.37,11.57,0,21.84-.63,30.85-1.93,8.99-1.28,17.02-3.86,24.1-7.71,6.42-2.56,11.24-6.9,14.46-13.01,3.21-6.1,4.82-13.98,4.82-23.62,0-4.49-1.3-9.31-3.86-14.46-2.58-5.14-6.12-10.27-10.6-15.42-5.78-4.49-12.86-8.03-21.21-10.6-8.36-2.56-18.32-3.86-29.89-3.86-20.58,0-38.41,2.89-53.5,8.68-15.11,5.78-27.81,14.14-38.08,25.06-5.78,6.43-10.94,13.18-15.42,20.24-4.5,7.08-7.71,14.46-9.64,22.17Z"/>
      <path class="cls-8" d="M552,115c0-41.42-33.58-75-75-75-.03,0-.05,0-.08,0-.03,0-.05,0-.08,0-41.42,0-75,33.58-75,75s60.29,171.46,75,201.08c.02.04.04.08.06.12v.06s.01-.02.02-.03c0,.01.01.02.02.03v-.06s.04-.08.06-.12c14.71-29.62,75-159.65,75-201.08Z"/>
      <circle class="cls-9" cx="476.92" cy="114.42" r="44.5"/>
      <path class="cls-1" d="M590.99,376.29v-43.43h184.93v43.43h-184.93Z"/>
      <path class="cls-7" d="M1100.36,552c-55.96,0-104.92-10.53-146.88-31.59-41.97-21.06-74.65-50.78-98.04-89.17-23.4-38.39-35.09-83.91-35.09-136.56s11.94-97.28,35.82-135.24c23.88-37.94,57.16-67.34,99.85-88.18,42.69-20.83,92.01-31.26,147.97-31.26,31.84,0,60.42,3.07,85.74,9.21,25.32,6.15,49.08,15.14,71.27,26.98l-1.45,115.17h-40.52l-36.9-130.96,52.1,17.77v26.32c-20.26-14.48-39.2-24.78-56.8-30.93-17.61-6.14-37.75-9.21-60.42-9.21-35.7,0-67.78,8.56-96.23,25.67-28.47,17.11-51.01,42.89-67.65,77.33-16.64,34.45-24.96,77.33-24.96,128.66,0,47.83,7.96,89.07,23.88,123.72,15.92,34.66,37.74,61.32,65.48,79.96,27.73,18.65,58.97,27.97,93.7,27.97,18.33,0,35.57-1.75,51.73-5.27,16.16-3.51,32.44-8.33,48.84-14.48l-35.45,19.74v-53.96c0-29.39-.25-58.02-.72-85.88-.49-27.86-1.21-56.48-2.17-85.88h102.74c-.49,27.64-1.09,55.51-1.81,83.58-.72,28.08-1.09,58.14-1.09,90.16v32.91c-27.98,14.92-55.48,25.89-82.49,32.9-27.02,7.01-57.16,10.53-90.44,10.53ZM1094.57,323.64v-21.72h228.64v21.72l-86.83,9.87h-40.52l-101.3-9.87Z"/>
      <path class="cls-7" d="M1360.12,73.56v-21.72h242.39v21.72l-111.43,9.21h-20.26l-110.7-9.21ZM1360.12,539.5v-21.72l110.7-9.21h20.26l111.43,9.21v21.72h-242.39ZM1428.13,539.5c.96-37.29,1.56-74.91,1.81-112.86.24-37.94.36-76.23.36-114.84v-31.59c0-38.17-.12-76.23-.36-114.18-.25-37.94-.85-76.01-1.81-114.18h107.09c-.97,37.3-1.57,75.14-1.81,113.52-.25,38.4-.36,76.67-.36,114.84v30.93c0,38.17.11,76.24.36,114.18.24,37.95.84,76.01,1.81,114.18h-107.09Z"/>
      <path class="cls-7" d="M1836.21,552c-29.43,0-58.86-3.52-88.27-10.53-29.43-7.01-54.27-16.67-74.53-28.96l4.34-107.93h38.35l36.18,124.38-44.14-17.11-7.96-25.01c23.63,15.36,44.61,25.56,62.95,30.6,18.33,5.05,39.55,7.57,63.67,7.57,36.65,0,65.36-7.57,86.1-22.71,20.73-15.14,31.11-36.52,31.11-64.16,0-15.35-2.66-28.51-7.96-39.49-5.31-10.96-14.36-20.83-27.13-29.61-12.79-8.77-30.03-17.33-51.73-25.67l-33.28-13.16c-46.31-18.86-81.65-40.14-106-63.84-24.36-23.69-36.54-54.4-36.54-92.13,0-28.96,8.07-53.41,24.24-73.38,16.15-19.96,38.35-35.1,66.57-45.41,28.22-10.3,60.42-15.46,96.6-15.46,28.46,0,54.5,3.19,78.14,9.54,23.63,6.37,44.86,15.47,63.67,27.31l-5.06,102.66h-38.35l-35.45-118.46,47.75,18.43,5.79,26.32c-20.26-14.91-37.75-25.22-52.46-30.93-14.72-5.7-32.2-8.56-52.46-8.56-32.32,0-58.61,7.02-78.87,21.06-20.26,14.05-30.39,34.01-30.39,59.89,0,23.69,7.24,42.56,21.71,56.6,14.47,14.05,34.97,26.32,61.5,36.85l36.18,14.48c36.18,14.48,65,28.96,86.47,43.43,21.46,14.48,36.9,30.5,46.31,48.04,9.41,17.55,14.11,38.4,14.11,62.52,0,28.52-7.96,53.42-23.88,74.69-15.92,21.29-38.83,37.95-68.74,50.02-29.91,12.06-66.09,18.1-108.53,18.1Z"/>
      <path d="M590.99,376.29v-43.43h184.93v43.43h-184.93Z"/>
      <path d="M1100.36,552c-55.96,0-104.92-10.53-146.88-31.59-41.97-21.06-74.65-50.78-98.04-89.17-23.4-38.39-35.09-83.91-35.09-136.56s11.94-97.28,35.82-135.24c23.88-37.94,57.16-67.34,99.85-88.18,42.69-20.83,92.01-31.26,147.97-31.26,31.84,0,60.42,3.07,85.74,9.21,25.32,6.15,49.08,15.14,71.27,26.98l-1.45,115.17h-40.52l-36.9-130.96,52.1,17.77v26.32c-20.26-14.48-39.2-24.78-56.8-30.93-17.61-6.14-37.75-9.21-60.42-9.21-35.7,0-67.78,8.56-96.23,25.67-28.47,17.11-51.01,42.89-67.65,77.33-16.64,34.45-24.96,77.33-24.96,128.66,0,47.83,7.96,89.07,23.88,123.72,15.92,34.66,37.74,61.32,65.48,79.96,27.73,18.65,58.97,27.97,93.7,27.97,18.33,0,35.57-1.75,51.73-5.27,16.16-3.51,32.44-8.33,48.84-14.48l-35.45,19.74v-53.96c0-29.39-.25-58.02-.72-85.88-.49-27.86-1.21-56.48-2.17-85.88h102.74c-.49,27.64-1.09,55.51-1.81,83.58-.72,28.08-1.09,58.14-1.09,90.16v32.91c-27.98,14.92-55.48,25.89-82.49,32.9-27.02,7.01-57.16,10.53-90.44,10.53ZM1094.57,323.64v-21.72h228.64v21.72l-86.83,9.87h-40.52l-101.3-9.87Z"/>
      <path d="M1360.12,73.56v-21.72h242.39v21.72l-111.43,9.21h-20.26l-110.7-9.21ZM1360.12,539.5v-21.72l110.7-9.21h20.26l111.43,9.21v21.72h-242.39ZM1428.13,539.5c.96-37.29,1.56-74.91,1.81-112.86.24-37.94.36-76.23.36-114.84v-31.59c0-38.17-.12-76.23-.36-114.18-.25-37.94-.85-76.01-1.81-114.18h107.09c-.97,37.3-1.57,75.14-1.81,113.52-.25,38.4-.36,76.67-.36,114.84v30.93c0,38.17.11,76.24.36,114.18.24,37.95.84,76.01,1.81,114.18h-107.09Z"/>
      <path d="M1836.21,552c-29.43,0-58.86-3.52-88.27-10.53-29.43-7.01-54.27-16.67-74.53-28.96l4.34-107.93h38.35l36.18,124.38-44.14-17.11-7.96-25.01c23.63,15.36,44.61,25.56,62.95,30.6,18.33,5.05,39.55,7.57,63.67,7.57,36.65,0,65.36-7.57,86.1-22.71,20.73-15.14,31.11-36.52,31.11-64.16,0-15.35-2.66-28.51-7.96-39.49-5.31-10.96-14.36-20.83-27.13-29.61-12.79-8.77-30.03-17.33-51.73-25.67l-33.28-13.16c-46.31-18.86-81.65-40.14-106-63.84-24.36-23.69-36.54-54.4-36.54-92.13,0-28.96,8.07-53.41,24.24-73.38,16.15-19.96,38.35-35.1,66.57-45.41,28.22-10.3,60.42-15.46,96.6-15.46,28.46,0,54.5,3.19,78.14,9.54,23.63,6.37,44.86,15.47,63.67,27.31l-5.06,102.66h-38.35l-35.45-118.46,47.75,18.43,5.79,26.32c-20.26-14.91-37.75-25.22-52.46-30.93-14.72-5.7-32.2-8.56-52.46-8.56-32.32,0-58.61,7.02-78.87,21.06-20.26,14.05-30.39,34.01-30.39,59.89,0,23.69,7.24,42.56,21.71,56.6,14.47,14.05,34.97,26.32,61.5,36.85l36.18,14.48c36.18,14.48,65,28.96,86.47,43.43,21.46,14.48,36.9,30.5,46.31,48.04,9.41,17.55,14.11,38.4,14.11,62.52,0,28.52-7.96,53.42-23.88,74.69-15.92,21.29-38.83,37.95-68.74,50.02-29.91,12.06-66.09,18.1-108.53,18.1Z"/>
    </g>
  </g>
</svg>