<?xml version="1.0" encoding="UTF-8"?>
<svg id="_레이어_2" data-name="레이어 2" xmlns="http://www.w3.org/2000/svg" viewBox="0 0 592 592">
  <defs>
    <style>
      .cls-1, .cls-2 {
        fill: #e60012;
      }

      .cls-3, .cls-4 {
        fill: #fff;
      }

      .cls-5 {
        fill: #4caf50;
      }

      .cls-5, .cls-6, .cls-2, .cls-4, .cls-7 {
        stroke-miterlimit: 10;
      }

      .cls-5, .cls-2, .cls-4, .cls-7 {
        stroke: #fff;
        stroke-width: 80px;
      }

      .cls-6 {
        stroke: #848784;
        stroke-width: 5px;
      }

      .cls-6, .cls-7 {
        fill: none;
        stroke-linecap: round;
      }

      .cls-8 {
        fill: #06c;
      }
    </style>
  </defs>
  <g id="_레이어_1-2" data-name="레이어 1">
    <g>
      <path class="cls-5" d="M552,296c0,141.38-114.62,256-256,256S40,437.39,40,296,154.62,40,296,40c4.35,0,10.16-.03,17.39.58,99.56,8.41,238.61,103.01,238.61,255.42Z"/>
      <path class="cls-7" d="M79.41,164.86c13.72,30.63,51.98,103.5,133.2,151.9,147.33,87.8,311.61,31.32,329.85,24.73"/>
      <path class="cls-7" d="M185.06,66.63c11.3,29.94,42.77,101.57,104.94,146.03,112.78,80.65,233.03,16.39,246.37,8.93"/>
      <path class="cls-7" d="M42.34,303.26c14.08,32.28,54.56,107.45,132,155.39,140.48,86.97,290.26,17.67,306.88,9.63"/>
      <path class="cls-7" d="M315.78,46.18c-25.84,7.53-124.32,39.4-188.09,137.33-74.42,114.28-42.68,240.27-37.16,260.62"/>
      <path class="cls-7" d="M326.51,46.18c19.74,30.94,83.41,139.01,68.93,286.01-10.59,107.52-59.64,183.77-83.11,216.35"/>
      <path class="cls-7" d="M326.51,46.18c8.08,3.68,171.68,81.42,182.2,243.65,9.21,141.94-106.42,230.63-119.63,240.42"/>
      <path class="cls-7" d="M320.37,44.39c-29.21,23.55-82.37,78.97-117.94,145.79-46.36,87.08-50.27,166.67-50.55,196.08-.47,49.03,13.92,104.23,21.45,131.39"/>
      <path class="cls-7" d="M321.91,44.64c-6.02,81.19-18.06,193.03-35.23,287.99-13.31,73.56-30.58,148.23-47.49,211.4"/>
      <path class="cls-4" d="M308.53,323.48c-23.14,0-43.71-1.11-61.7-3.37-18-2.24-33.11-5.62-45.31-10.12,0,15.42,2.24,29.4,6.75,41.94,4.49,12.53,11.57,22.99,21.21,31.33,9.64,9.64,20.56,16.39,32.78,20.24,12.2,3.86,26.03,5.78,41.45,5.78,10.92,0,23.29-.8,37.12-2.41,13.81-1.6,28.76-4.97,44.83-10.12,8.99-2.56,16.22-2.56,21.69,0,5.45,2.58,9.47,7.4,12.05,14.46,1.93,9.01.63,16.39-3.86,22.17-4.5,5.78-11.57,10.29-21.21,13.5-13.5,5.15-27.81,8.68-42.9,10.6-15.11,1.93-31.01,2.89-47.72,2.89-25.06,0-47.24-3.37-66.52-10.12s-35.35-17.5-48.2-32.29c-14.14-13.5-24.58-29.72-31.33-48.68-6.75-18.95-10.12-40.01-10.12-63.14,0-25.06,3.69-48.04,11.09-68.93,7.38-20.88,18.8-39.68,34.22-56.4,14.13-15.42,32.29-27.48,54.47-36.15,22.17-8.68,48.04-13.01,77.6-13.01,17.35,0,33.09,2.74,47.24,8.19,14.13,5.47,26.99,12.38,38.56,20.73,10.27,9.64,18.47,20.09,24.58,31.33,6.1,11.25,9.16,22.99,9.16,35.19,0,16.07-3.06,30.05-9.16,41.94-6.12,11.9-14.94,21.69-26.51,29.4-11.57,8.36-25.71,14.63-42.42,18.8-16.72,4.19-36,6.27-57.84,6.27ZM208.27,258.89c12.85,5.15,28.44,8.84,46.76,11.09,18.32,2.26,38.71,3.37,61.22,3.37,11.57,0,21.84-.63,30.85-1.93,8.99-1.28,17.02-3.86,24.1-7.71,6.42-2.56,11.24-6.9,14.46-13.01,3.21-6.1,4.82-13.98,4.82-23.62,0-4.49-1.3-9.31-3.86-14.46-2.58-5.14-6.12-10.27-10.6-15.42-5.78-4.49-12.86-8.03-21.21-10.6-8.36-2.56-18.32-3.86-29.89-3.86-20.58,0-38.41,2.89-53.5,8.68-15.11,5.78-27.81,14.14-38.08,25.06-5.78,6.43-10.94,13.18-15.42,20.24-4.5,7.08-7.71,14.46-9.64,22.17Z"/>
      <g>
        <path class="cls-2" d="M552,115c0-41.42-33.58-75-75-75-.03,0-.05,0-.08,0-.03,0-.05,0-.08,0-41.42,0-75,33.58-75,75s60.29,171.46,75,201.08c.02.04.04.08.06.12v.06s.01-.02.02-.03c0,.01.01.02.02.03v-.06s.04-.08.06-.12c14.71-29.62,75-159.65,75-201.08Z"/>
        <circle class="cls-4" cx="476.92" cy="114.42" r="44.5"/>
      </g>
      <path class="cls-8" d="M552,296c0,141.38-114.62,256-256,256S40,437.39,40,296,154.62,40,296,40c4.35,0,10.16-.03,17.39.58,99.56,8.41,238.61,103.01,238.61,255.42Z"/>
      <path class="cls-6" d="M79.41,164.86c13.72,30.63,51.98,103.5,133.2,151.9,147.33,87.8,311.61,31.32,329.85,24.73"/>
      <path class="cls-6" d="M185.06,66.63c11.3,29.94,42.77,101.57,104.94,146.03,112.78,80.65,233.03,16.39,246.37,8.93"/>
      <path class="cls-6" d="M42.34,303.26c14.08,32.28,54.56,107.45,132,155.39,140.48,86.97,290.26,17.67,306.88,9.63"/>
      <path class="cls-6" d="M315.78,46.18c-25.84,7.53-124.32,39.4-188.09,137.33-74.42,114.28-42.68,240.27-37.16,260.62"/>
      <path class="cls-6" d="M326.51,46.18c19.74,30.94,83.41,139.01,68.93,286.01-10.59,107.52-59.64,183.77-83.11,216.35"/>
      <path class="cls-6" d="M326.51,46.18c8.08,3.68,171.68,81.42,182.2,243.65,9.21,141.94-106.42,230.63-119.63,240.42"/>
      <path class="cls-6" d="M320.37,44.39c-29.21,23.55-82.37,78.97-117.94,145.79-46.36,87.08-50.27,166.67-50.55,196.08-.47,49.03,13.92,104.23,21.45,131.39"/>
      <path class="cls-6" d="M321.91,44.64c-6.02,81.19-18.06,193.03-35.23,287.99-13.31,73.56-30.58,148.23-47.49,211.4"/>
      <path class="cls-3" d="M308.53,323.48c-23.14,0-43.71-1.11-61.7-3.37-18-2.24-33.11-5.62-45.31-10.12,0,15.42,2.24,29.4,6.75,41.94,4.49,12.53,11.57,22.99,21.21,31.33,9.64,9.64,20.56,16.39,32.78,20.24,12.2,3.86,26.03,5.78,41.45,5.78,10.92,0,23.29-.8,37.12-2.41,13.81-1.6,28.76-4.97,44.83-10.12,8.99-2.56,16.22-2.56,21.69,0,5.45,2.58,9.47,7.4,12.05,14.46,1.93,9.01.63,16.39-3.86,22.17-4.5,5.78-11.57,10.29-21.21,13.5-13.5,5.15-27.81,8.68-42.9,10.6-15.11,1.93-31.01,2.89-47.72,2.89-25.06,0-47.24-3.37-66.52-10.12s-35.35-17.5-48.2-32.29c-14.14-13.5-24.58-29.72-31.33-48.68-6.75-18.95-10.12-40.01-10.12-63.14,0-25.06,3.69-48.04,11.09-68.93,7.38-20.88,18.8-39.68,34.22-56.4,14.13-15.42,32.29-27.48,54.47-36.15,22.17-8.68,48.04-13.01,77.6-13.01,17.35,0,33.09,2.74,47.24,8.19,14.13,5.47,26.99,12.38,38.56,20.73,10.27,9.64,18.47,20.09,24.58,31.33,6.1,11.25,9.16,22.99,9.16,35.19,0,16.07-3.06,30.05-9.16,41.94-6.12,11.9-14.94,21.69-26.51,29.4-11.57,8.36-25.71,14.63-42.42,18.8-16.72,4.19-36,6.27-57.84,6.27ZM208.27,258.89c12.85,5.15,28.44,8.84,46.76,11.09,18.32,2.26,38.71,3.37,61.22,3.37,11.57,0,21.84-.63,30.85-1.93,8.99-1.28,17.02-3.86,24.1-7.71,6.42-2.56,11.24-6.9,14.46-13.01,3.21-6.1,4.82-13.98,4.82-23.62,0-4.49-1.3-9.31-3.86-14.46-2.58-5.14-6.12-10.27-10.6-15.42-5.78-4.49-12.86-8.03-21.21-10.6-8.36-2.56-18.32-3.86-29.89-3.86-20.58,0-38.41,2.89-53.5,8.68-15.11,5.78-27.81,14.14-38.08,25.06-5.78,6.43-10.94,13.18-15.42,20.24-4.5,7.08-7.71,14.46-9.64,22.17Z"/>
      <path class="cls-1" d="M552,115c0-41.42-33.58-75-75-75-.03,0-.05,0-.08,0-.03,0-.05,0-.08,0-41.42,0-75,33.58-75,75s60.29,171.46,75,201.08c.02.04.04.08.06.12v.06s.01-.02.02-.03c0,.01.01.02.02.03v-.06s.04-.08.06-.12c14.71-29.62,75-159.65,75-201.08Z"/>
      <circle class="cls-3" cx="476.92" cy="114.42" r="44.5"/>
    </g>
  </g>
</svg>